/* XPM */ 
static const char * crosshairCursor_xpm[] = {
"17 17 3 1",
" 	c None",
"!	c black",
"#	c white",
"       !!!       ",
"       !#!       ",
"       !#!       ",
"       !#!       ",
"       !#!       ",
"       !#!       ",
"       !#!       ",
"!!!!!!!!#!!!!!!!!",
"!###############!",
"!!!!!!!!#!!!!!!!!",
"       !#!       ",
"       !#!       ",
"       !#!       ",
"       !#!       ",
"       !#!       ",
"       !#!       ",
"       !!!       "};
