#define insert_width 32
#define insert_height 32
#define insert_x_hot 1
#define insert_y_hot 2
static const unsigned char insert_bits[] = {
  0x01,0x00,0x00,0x00,0x03,0x00,0x00,0x00,0x05,0x00,0x00,0x00,
  0x09,0x00,0x00,0x00,0x11,0x00,0x00,0x00,0x21,0x00,0x00,0x00,
  0x41,0x00,0x00,0x00,0x81,0x00,0x00,0x00,0xC1,0x00,0x00,0x00,
  0x31,0x00,0x00,0x00,0x0D,0x00,0x00,0x00,0x03,0x00,0x00,0x00,
  0xE0,0x01,0x00,0x00,0x20,0x01,0x00,0x00,0x38,0x07,0x00,0x00,
  0x08,0x04,0x00,0x00,0x08,0x04,0x00,0x00,0x38,0x07,0x00,0x00,
  0x20,0x01,0x00,0x00,0xE0,0x01,0x00,0x00,0x00,0x00,0x00,0x00,
  0x00,0x00,0x00,0x00,0x00,0x00,0x00,0x00,0x00,0x00,0x00,0x00,
  0x00,0x00,0x00,0x00,0x00,0x00,0x00,0x00,0x00,0x00,0x00,0x00,
  0x00,0x00,0x00,0x00,0x00,0x00,0x00,0x00,0x00,0x00,0x00,0x00,
  0x00,0x00,0x00,0x00,0x00,0x00,0x00,0x00};
