#define rotate_width 32
#define rotate_height 32
#define rotate_x_hot 8
#define rotate_y_hot 6
static const unsigned char rotate_bits[] = {
  0x00,0x00,0x00,0x00,0x80,0x07,0x00,0x00,0x60,0x18,0x00,0x00,
  0x00,0x20,0x00,0x00,0x00,0x20,0x00,0x00,0x08,0x40,0x00,0x00,
  0x1C,0x53,0x01,0x00,0x2A,0xE3,0x00,0x00,0x08,0x40,0x00,0x00,
  0x10,0x00,0x00,0x00,0x10,0x00,0x00,0x00,0x60,0x18,0x00,0x00,
  0x80,0x07,0x00,0x00,0x00,0x00,0x00,0x00,0x00,0x00,0x00,0x00,
  0x00,0x00,0x00,0x00,0x00,0x00,0x00,0x00,0x00,0x00,0x00,0x00,
  0x00,0x00,0x00,0x00,0x00,0x00,0x00,0x00,0x00,0x00,0x00,0x00,
  0x00,0x00,0x00,0x00,0x00,0x00,0x00,0x00,0x00,0x00,0x00,0x00,
  0x00,0x00,0x00,0x00,0x00,0x00,0x00,0x00,0x00,0x00,0x00,0x00,
  0x00,0x00,0x00,0x00,0x00,0x00,0x00,0x00,0x00,0x00,0x00,0x00,
  0x00,0x00,0x00,0x00,0x00,0x00,0x00,0x00};
